<svg width="57" height="60" viewBox="0 0 57 60" fill="none" xmlns="http://www.w3.org/2000/svg">
<path d="M48.4157 9.3294C48.4157 6.63527 45.7574 4.32704 40.8193 2.72628C36.5316 1.29704 30.6216 0.496658 24.6831 0.496658C18.7446 0.496658 12.8275 1.31133 8.51836 2.74057C3.55888 4.37706 0.943359 6.671 0.943359 9.37942V22.3927C0.943359 25.1011 3.55888 27.3951 8.51836 29.0315C13.7633 30.5873 19.2127 31.3437 24.6831 31.2755C25.2691 31.2755 25.8623 31.2755 26.4411 31.2755V29.2531C26.4338 29.1317 26.4338 29.01 26.4411 28.8886C25.8456 28.8886 25.2524 28.8886 24.6617 28.8886C18.8018 28.8886 13.3063 28.174 9.19011 26.7448C5.44548 25.537 3.30161 23.9363 3.30161 22.3927V13.4528L3.60175 13.66C7.49645 16.4542 15.7503 18.255 24.6831 18.255C33.6159 18.255 41.8341 16.4542 45.7645 13.66L46.0646 13.4528V22.3927C46.0403 22.7291 45.9479 23.0571 45.7931 23.3568C45.6384 23.6565 45.4244 23.9217 45.1642 24.1364L47.6868 24.6366H47.7512C48.1815 23.9614 48.4142 23.1791 48.4229 22.3784L48.4157 9.3294ZM40.1476 13.7744C36.0456 15.1607 30.5573 15.8753 24.6831 15.8753C18.8089 15.8753 13.3063 15.1607 9.21869 13.7744C5.44548 12.5238 3.30161 10.9159 3.30161 9.37227C3.30161 7.82869 5.44548 6.22793 9.21869 4.97734C13.3206 3.61241 18.8161 2.83348 24.6831 2.83348C30.5502 2.83348 36.0456 3.59098 40.1476 4.97734C43.9065 6.23508 46.0646 7.83583 46.0646 9.37942C46.0646 10.923 43.9065 12.5166 40.1476 13.7744Z" fill="url(#paint0_linear_2006_1457)"/>
<path d="M26.4411 41.6871V44.0454C25.8623 44.0454 25.2691 44.0454 24.6831 44.0454C18.716 44.0454 12.8275 43.2307 8.51836 41.8086C3.55888 40.1721 0.943359 37.8925 0.943359 35.1697V29.7672C0.943359 29.4545 1.06759 29.1546 1.28872 28.9334C1.50985 28.7123 1.80976 28.5881 2.12249 28.5881C2.27978 28.5787 2.43727 28.6028 2.58457 28.6587C2.73187 28.7147 2.86565 28.8012 2.97706 28.9126C3.08848 29.024 3.17502 29.1578 3.23096 29.3051C3.2869 29.4524 3.31098 29.6099 3.30161 29.7672V35.1697C3.30161 36.7133 5.44548 38.3069 9.21154 39.5647C13.3135 40.9296 18.8089 41.7085 24.6831 41.7085C25.2691 41.7085 25.8623 41.7014 26.4411 41.6871Z" fill="url(#paint1_linear_2006_1457)"/>
<path d="M32.7727 56.68C30.0898 57.0229 27.3878 57.1948 24.6831 57.1945C19.2127 57.2628 13.7633 56.5064 8.51836 54.9506C3.55888 53.3141 0.943359 51.0202 0.943359 48.3118V42.8878C0.945234 42.5756 1.07006 42.2768 1.29079 42.0561C1.51151 41.8354 1.81034 41.7105 2.12249 41.7087C2.27922 41.7016 2.43572 41.7272 2.582 41.7839C2.72828 41.8407 2.86112 41.9273 2.97207 42.0382C3.08301 42.1492 3.16962 42.282 3.22636 42.4283C3.2831 42.5746 3.30873 42.7311 3.30161 42.8878V48.3118C3.30161 49.8554 5.44548 51.4561 9.21154 52.7067C13.3278 54.0788 18.8232 54.8506 24.6831 54.8506C26.6698 54.8506 28.6136 54.7648 30.4716 54.5933L30.7002 54.8363C30.8861 55.0292 31.079 55.215 31.2791 55.408C31.7507 55.8368 32.2438 56.2655 32.7727 56.68Z" fill="url(#paint2_linear_2006_1457)"/>
<path d="M50.281 35.8849C50.1423 35.7533 49.9761 35.6542 49.7944 35.5949C49.6127 35.5355 49.42 35.5174 49.2305 35.5419C48.9777 35.5766 48.7437 35.6948 48.5659 35.8778L40.8193 43.5814L39.8332 42.5952L39.0828 41.8806L37.8537 40.6515C37.7608 40.5586 37.6679 40.4728 37.5821 40.3799L37.3105 40.1084C37.0863 39.8907 36.7869 39.7679 36.4744 39.7653H36.4244C36.2646 39.7615 36.106 39.7932 35.9599 39.8582C35.8244 39.912 35.7024 39.995 35.6026 40.1012C35.3808 40.3316 35.2568 40.6389 35.2568 40.9588C35.2568 41.2786 35.3808 41.5859 35.6026 41.8163L37.8537 44.0745L39.4258 45.6395L39.9689 46.1826C40.0805 46.2944 40.2131 46.3828 40.3591 46.4429C40.505 46.503 40.6615 46.5336 40.8193 46.5328C40.9783 46.5338 41.1359 46.5033 41.283 46.4432C41.4302 46.3831 41.564 46.2946 41.6769 46.1826L49.5377 38.3218L50.2524 37.6072C50.3653 37.4869 50.4531 37.3453 50.5108 37.1907C50.5685 37.0361 50.5948 36.8716 50.5882 36.7067C50.5974 36.5559 50.5748 36.4048 50.5219 36.2632C50.469 36.1216 50.3869 35.9928 50.281 35.8849Z" fill="url(#paint3_linear_2006_1457)"/>
<path d="M56.5317 28.4588C56.3855 28.2493 56.1706 28.0976 55.9243 28.0301L55.0739 27.8586L54.6737 27.7799L52.8085 27.4083L43.4327 25.5503H43.2397H42.9467H42.8538H42.7323L41.6533 25.7647L39.881 26.1149C39.3879 26.2221 38.8948 26.315 38.4017 26.415L36.5509 26.7795L34.7429 27.1439L33.428 27.4083L32.9635 27.5012L31.5342 27.7799L31.0697 27.8728C30.7124 27.9372 30.3551 28.0015 29.9835 28.0944H29.9335L29.6833 28.2016C29.5583 28.2692 29.4525 28.3676 29.376 28.4874C29.3279 28.5506 29.2849 28.6175 29.2474 28.6875C29.1562 28.8542 29.1071 29.0406 29.1045 29.2306V46.6031C29.1231 46.8691 29.1686 47.1324 29.2403 47.3892V47.4607C29.3452 47.8806 29.4765 48.2935 29.6333 48.697C29.9862 49.6044 30.4392 50.4697 30.9839 51.2767C31.437 51.9437 31.9411 52.5744 32.4918 53.1633C32.5918 53.2848 32.7062 53.3992 32.8205 53.5135C32.9349 53.6279 33.1564 53.8565 33.3279 54.0209C33.8949 54.5536 34.4888 55.0569 35.1073 55.5287C35.4646 55.8003 35.8219 56.0719 36.215 56.3291C36.4651 56.5078 36.7152 56.6721 36.9296 56.8365C38.0771 57.5679 39.2706 58.2243 40.5027 58.8017C41.2143 59.1508 41.9443 59.4609 42.6895 59.7307H42.7538C43.1752 59.7944 43.6053 59.7003 43.9615 59.4663L44.1187 59.3877C44.769 59.0947 45.405 58.7874 46.0053 58.473C47.0966 57.9087 48.158 57.2886 49.1854 56.615C50.8236 55.5596 52.3219 54.3015 53.6446 52.8703C54.5422 51.9083 55.2978 50.8231 55.8886 49.6474C56.2615 48.9172 56.5286 48.1375 56.6818 47.332C56.7488 47.0001 56.7871 46.6629 56.7961 46.3244V29.1735C56.79 28.9125 56.697 28.6609 56.5317 28.4588ZM54.3878 46.6245C54.2998 47.1141 54.1609 47.5931 53.9734 48.0538C53.6056 48.8775 53.1453 49.6567 52.6013 50.3763C51.6713 51.524 50.6114 52.56 49.4427 53.4635C47.8506 54.6675 46.1495 55.7202 44.3617 56.6078L43.3969 57.0652L43.0182 57.2438H42.9396L42.6752 57.1366C41.3049 56.5534 39.9793 55.8702 38.709 55.0928C38.4661 54.9499 38.2302 54.7998 37.9944 54.6426C37.537 54.3496 37.0582 54.0137 36.4723 53.5707C36.1935 53.3491 35.9363 53.1419 35.6933 52.9275C34.8627 52.218 34.1017 51.4307 33.4208 50.5764C32.8461 49.8156 32.3662 48.9877 31.9916 48.111C31.7879 47.6007 31.6254 47.075 31.5056 46.5388V30.2382H31.6628L31.8844 30.1668L34.4499 29.6594L34.9573 29.5594L38.6447 28.8447L39.6523 28.6446L41.8462 28.2087L42.4536 28.0872L43.0611 27.9657H43.1325L44.0115 28.1373H44.033L45.2836 28.3874L46.6556 28.6661L49.3926 29.2092L50.5932 29.445L53.7947 30.081L54.2378 30.1739H54.3878V45.8956C54.3878 46.16 54.3878 46.3959 54.3736 46.6031L54.3878 46.6245Z" fill="url(#paint4_linear_2006_1457)"/>
<defs>
<linearGradient id="paint0_linear_2006_1457" x1="38.8483" y1="31.2797" x2="39.124" y2="0.493255" gradientUnits="userSpaceOnUse">
<stop stop-color="#061E30"/>
<stop offset="1" stop-color="#122B3E"/>
</linearGradient>
<linearGradient id="paint1_linear_2006_1457" x1="21.2993" y1="44.0454" x2="21.4288" y2="28.5842" gradientUnits="userSpaceOnUse">
<stop stop-color="#061E30"/>
<stop offset="1" stop-color="#122B3E"/>
</linearGradient>
<linearGradient id="paint2_linear_2006_1457" x1="26.354" y1="57.1988" x2="26.4582" y2="41.7052" gradientUnits="userSpaceOnUse">
<stop stop-color="#061E30"/>
<stop offset="1" stop-color="#122B3E"/>
</linearGradient>
<linearGradient id="paint3_linear_2006_1457" x1="47.4981" y1="46.5328" x2="47.6072" y2="35.5303" gradientUnits="userSpaceOnUse">
<stop stop-color="#061E30"/>
<stop offset="1" stop-color="#122B3E"/>
</linearGradient>
<linearGradient id="paint4_linear_2006_1457" x1="51.2119" y1="59.7502" x2="51.7952" y2="25.5538" gradientUnits="userSpaceOnUse">
<stop stop-color="#061E30"/>
<stop offset="1" stop-color="#122B3E"/>
</linearGradient>
</defs>
</svg>
