<svg width="1440" height="1276" viewBox="0 0 1440 1276" fill="none" xmlns="http://www.w3.org/2000/svg">
<path d="M-82.9426 1274L445.561 893.27L55.46 418.298L-91.913 1267.04C-92.1201 1268.34 -91.9932 1269.68 -91.5479 1270.9C-91.1026 1272.12 -90.3583 1273.16 -89.4062 1273.9C-88.4541 1274.64 -87.3355 1275.04 -86.1874 1275.06C-85.0393 1275.08 -83.9116 1274.71 -82.9426 1274Z" fill="url(#paint0_linear_1_1067)"/>
<path d="M1105.78 -261.246L1105.78 1109.49L55.5039 418.298L1097.01 -267.139C1097.9 -267.714 1098.91 -268.011 1099.94 -268C1100.96 -267.988 1101.97 -267.67 1102.85 -267.075C1103.74 -266.48 1104.48 -265.63 1104.99 -264.608C1105.5 -263.586 1105.78 -262.427 1105.78 -261.246Z" fill="url(#paint1_linear_1_1067)"/>
<path d="M1105.73 1109.49L1698.38 -254.839C1698.92 -256.103 1699.11 -257.532 1698.92 -258.926C1698.72 -260.319 1698.15 -261.606 1697.28 -262.605C1696.41 -263.604 1695.3 -264.264 1694.09 -264.492C1692.88 -264.721 1691.63 -264.505 1690.54 -263.877L1279.35 -27.289L1105.73 1109.49Z" fill="url(#paint2_linear_1_1067)"/>
<path d="M444.983 892.125L350.003 777" stroke="url(#paint3_linear_1_1067)" stroke-width="5" stroke-linecap="round"/>
<path d="M564.254 83.4146L329.729 237.882" stroke="url(#paint4_linear_1_1067)" stroke-width="5" stroke-linecap="round"/>
<path d="M1450.94 316L1331 592" stroke="url(#paint5_linear_1_1067)" stroke-width="5" stroke-linecap="round"/>
<defs>
<linearGradient id="paint0_linear_1_1067" x1="16.3953" y1="1275.06" x2="-2.45947" y2="418.549" gradientUnits="userSpaceOnUse">
<stop stop-color="#061E30"/>
<stop offset="1" stop-color="#122B3E"/>
</linearGradient>
<linearGradient id="paint1_linear_1_1067" x1="1079.99" y1="661" x2="453.993" y2="513" gradientUnits="userSpaceOnUse">
<stop stop-color="#061E30"/>
<stop offset="1" stop-color="#122B3E"/>
</linearGradient>
<linearGradient id="paint2_linear_1_1067" x1="1753.99" y1="-25" x2="1027.99" y2="779" gradientUnits="userSpaceOnUse">
<stop stop-color="#061E30"/>
<stop offset="1" stop-color="#122B3E"/>
</linearGradient>
<linearGradient id="paint3_linear_1_1067" x1="444.598" y1="892.444" x2="349.617" y2="777.318" gradientUnits="userSpaceOnUse">
<stop offset="0.0416667" stop-color="#FDB62B" stop-opacity="0.3"/>
<stop offset="1" stop-color="#F9F9F9" stop-opacity="0"/>
</linearGradient>
<linearGradient id="paint4_linear_1_1067" x1="564.529" y1="83.8321" x2="330.004" y2="238.299" gradientUnits="userSpaceOnUse">
<stop offset="0.0416667" stop-color="#FDB62B" stop-opacity="0.3"/>
<stop offset="1" stop-color="#F9F9F9" stop-opacity="0"/>
</linearGradient>
<linearGradient id="paint5_linear_1_1067" x1="1451.4" y1="316.199" x2="1331.46" y2="592.199" gradientUnits="userSpaceOnUse">
<stop offset="0.0416667" stop-color="#FDB62B" stop-opacity="0.3"/>
<stop offset="1" stop-color="#F9F9F9" stop-opacity="0"/>
</linearGradient>
</defs>
</svg>
