<svg width="290" height="114" viewBox="0 0 290 114" fill="none" xmlns="http://www.w3.org/2000/svg">
<path d="M87.3661 47.8633C83.6746 47.632 81.983 46.5964 81.983 44.7666C81.983 42.9367 83.8494 41.9614 87.2478 41.9614C89.7723 41.9614 91.9419 42.4641 93.8699 44.0276C93.9002 44.0544 93.9396 44.0693 93.9805 44.0693C94.0214 44.0693 94.0608 44.0544 94.091 44.0276L98.2041 40.0059C98.222 39.9894 98.2363 39.9696 98.2461 39.9475C98.2558 39.9255 98.2608 39.9017 98.2608 39.8777C98.2608 39.8537 98.2558 39.8299 98.2461 39.8078C98.2363 39.7858 98.222 39.7659 98.2041 39.7495C94.9034 37.0047 91.5512 36.1953 87.1296 36.1953C81.8648 36.1953 74.9496 38.4827 74.9496 45.0129C74.9496 51.4124 81.4535 53.373 86.8931 53.7752C91.0062 53.9913 92.6309 54.7806 92.6309 56.7361C92.6309 58.8073 90.1167 60.1747 87.4226 60.1194C84.1774 59.9469 81.0495 58.8745 78.4046 57.0277C78.3744 57.0009 78.335 56.986 78.2941 56.986C78.2532 56.986 78.2138 57.0009 78.1835 57.0277L74.1013 61.0494C74.0686 61.0814 74.0503 61.1248 74.0503 61.17C74.0503 61.2153 74.0686 61.2587 74.1013 61.2907C78.2761 65.4531 82.7748 66.1871 87.3095 66.1871C95.5615 66.1871 99.726 61.899 99.726 56.907C99.726 49.4016 92.8108 48.19 87.3661 47.8633Z" fill="white"/>
<path d="M110.44 36.7734H103.787C103.742 36.7734 103.699 36.7909 103.667 36.822C103.635 36.8531 103.617 36.8953 103.617 36.9393V65.051C103.617 65.0725 103.622 65.0939 103.63 65.1137C103.639 65.1336 103.651 65.1515 103.667 65.1666C103.683 65.1816 103.702 65.1933 103.722 65.2011C103.743 65.2089 103.765 65.2125 103.787 65.2119H110.44C110.462 65.2125 110.484 65.2089 110.504 65.2011C110.525 65.1933 110.544 65.1816 110.559 65.1666C110.575 65.1515 110.588 65.1336 110.596 65.1137C110.605 65.0939 110.609 65.0725 110.609 65.051V46.4506C110.609 46.4289 110.605 46.4073 110.597 46.3872C110.588 46.367 110.576 46.3487 110.56 46.3333C110.544 46.3179 110.525 46.3057 110.505 46.2974C110.484 46.289 110.462 46.2847 110.44 46.2847H105.057L110.563 40.9057C110.594 40.873 110.611 40.8297 110.609 40.7851V36.9393C110.609 36.9175 110.605 36.896 110.597 36.8758C110.588 36.8557 110.576 36.8374 110.56 36.822C110.544 36.8066 110.525 36.7944 110.505 36.7861C110.484 36.7777 110.462 36.7734 110.44 36.7734Z" fill="white"/>
<path d="M155.987 36.7734H149.303C149.281 36.7734 149.259 36.7777 149.239 36.7861C149.219 36.7945 149.2 36.8068 149.185 36.8223C149.17 36.8378 149.158 36.8561 149.15 36.8762C149.142 36.8963 149.138 36.9178 149.139 36.9393V65.051C149.139 65.0936 149.156 65.1346 149.187 65.1647C149.218 65.1949 149.26 65.2119 149.303 65.2119H155.987C156.009 65.2125 156.031 65.2089 156.052 65.2011C156.072 65.1933 156.091 65.1816 156.107 65.1666C156.123 65.1515 156.135 65.1336 156.144 65.1137C156.152 65.0939 156.157 65.0725 156.157 65.051V46.4506C156.157 46.4066 156.139 46.3644 156.107 46.3333C156.075 46.3022 156.032 46.2847 155.987 46.2847H150.589L156.105 40.9057C156.138 40.8735 156.156 40.8303 156.157 40.7851V36.9393C156.157 36.9175 156.152 36.896 156.144 36.8758C156.135 36.8557 156.123 36.8374 156.107 36.822C156.091 36.8066 156.073 36.7944 156.052 36.7861C156.031 36.7777 156.009 36.7734 155.987 36.7734Z" fill="white"/>
<path d="M168.84 28.7043V65.0554C168.84 65.0994 168.823 65.1416 168.791 65.1727C168.759 65.2038 168.716 65.2213 168.671 65.2213H162.064C162.042 65.2213 162.02 65.217 162 65.2086C161.98 65.2002 161.961 65.1879 161.946 65.1724C161.93 65.157 161.918 65.1386 161.911 65.1185C161.903 65.0984 161.899 65.077 161.899 65.0554V28.7043C161.899 28.6617 161.917 28.6207 161.948 28.5906C161.979 28.5604 162.02 28.5435 162.064 28.5435H168.676C168.719 28.5435 168.761 28.5604 168.792 28.5906C168.823 28.6207 168.84 28.6617 168.84 28.7043Z" fill="white"/>
<path d="M129.957 36.7686C126.476 36.7674 123.103 37.9464 120.411 40.1047C117.72 42.2629 115.877 45.2669 115.198 48.6046C114.518 51.9423 115.042 55.4073 116.683 58.4091C118.323 61.4109 120.977 63.7637 124.192 65.0666C127.408 66.3695 130.986 66.5419 134.317 65.5544C137.648 64.5669 140.525 62.4806 142.459 59.651C144.393 56.8214 145.264 53.4237 144.923 50.0367C144.582 46.6498 143.05 43.4833 140.589 41.0768L144.702 37.0551C144.725 37.0316 144.741 37.0019 144.747 36.9697C144.753 36.9375 144.75 36.9042 144.736 36.8741C144.723 36.844 144.701 36.8184 144.673 36.8005C144.645 36.7826 144.612 36.7732 144.579 36.7736L129.957 36.7686ZM129.957 59.828C128.265 59.828 126.612 59.3375 125.206 58.4187C123.8 57.4998 122.704 56.1939 122.057 54.666C121.41 53.1381 121.241 51.4569 121.571 49.835C121.901 48.2132 122.716 46.7236 123.913 45.5546C125.109 44.3856 126.633 43.5898 128.292 43.2678C129.951 42.9458 131.67 43.112 133.232 43.7456C134.794 44.3791 136.129 45.4514 137.068 46.8269C138.007 48.2024 138.508 49.8192 138.507 51.4729C138.503 53.688 137.6 55.811 135.997 57.3764C134.394 58.9418 132.222 59.8216 129.957 59.8229V59.828Z" fill="white"/>
<path d="M144.227 66.1665H137.059C138 67.53 138.503 69.1368 138.504 70.7814C138.498 72.9187 137.654 74.9724 136.146 76.5195C134.638 78.0666 132.58 78.9893 130.397 79.0975C128.214 79.2058 126.071 78.4914 124.411 77.1014C122.75 75.7114 121.698 73.7517 121.471 71.626H114.936C115.165 75.4436 116.905 79.0239 119.789 81.6075C122.672 84.1912 126.472 85.5748 130.381 85.4649C134.29 85.3551 138.002 83.7603 140.729 81.019C143.456 78.2777 144.984 74.6055 144.987 70.7814C144.989 69.2131 144.732 67.6548 144.227 66.1665Z" fill="white"/>
<path d="M182.029 53.9708C181.487 53.9883 180.947 53.8923 180.445 53.6893C180.059 53.5332 179.721 53.2821 179.463 52.9604C179.247 52.683 179.122 52.3483 179.104 52.0002C179.104 51.9418 179.128 51.8859 179.17 51.8444C179.193 51.823 179.219 51.8063 179.248 51.795C179.278 51.7838 179.309 51.7784 179.34 51.779H179.895C179.966 51.774 180.036 51.7956 180.091 51.8393C180.131 51.8823 180.161 51.9339 180.178 51.9901C180.222 52.1761 180.312 52.3487 180.44 52.4929C180.602 52.675 180.807 52.8163 181.037 52.9051C181.352 53.0262 181.69 53.0826 182.029 53.071C182.51 53.1079 182.99 52.9953 183.402 52.7492C183.543 52.6525 183.657 52.5226 183.733 52.3715C183.81 52.2204 183.846 52.053 183.839 51.8846C183.844 51.7747 183.826 51.665 183.786 51.5622C183.746 51.4593 183.685 51.3655 183.607 51.2863C183.403 51.1016 183.161 50.9611 182.898 50.8741C182.579 50.7585 182.168 50.6228 181.664 50.482C181.209 50.3576 180.768 50.1892 180.348 49.9793C180.033 49.8321 179.765 49.6046 179.571 49.3207C179.39 49.0164 179.302 48.6672 179.319 48.3153C179.316 47.9566 179.425 47.6055 179.633 47.3099C179.863 46.9951 180.176 46.7467 180.538 46.591C180.993 46.4045 181.484 46.3153 181.978 46.3296C182.377 46.3217 182.775 46.3795 183.155 46.5005C183.461 46.6057 183.745 46.7641 183.993 46.968C184.205 47.1422 184.38 47.3558 184.507 47.5964C184.619 47.7957 184.683 48.0177 184.692 48.2449C184.693 48.2988 184.673 48.351 184.636 48.3907C184.615 48.4149 184.589 48.4339 184.56 48.4461C184.53 48.4583 184.498 48.4635 184.466 48.4611H183.89C183.834 48.4596 183.779 48.444 183.731 48.4159C183.672 48.3801 183.628 48.3248 183.607 48.26C183.581 48.1087 183.521 47.9648 183.432 47.8381C183.344 47.7114 183.228 47.605 183.093 47.5261C182.758 47.3159 182.365 47.2123 181.967 47.2295C181.567 47.2102 181.169 47.3026 180.821 47.4959C180.678 47.5815 180.562 47.7035 180.485 47.8487C180.408 47.994 180.373 48.1571 180.384 48.3203C180.374 48.5378 180.448 48.7509 180.589 48.9186C180.768 49.1078 180.99 49.2526 181.237 49.3408C181.617 49.4881 182.005 49.6157 182.399 49.7229C182.887 49.8474 183.362 50.0157 183.818 50.2256C184.146 50.3646 184.43 50.5867 184.641 50.8691C184.829 51.1712 184.92 51.5213 184.903 51.8745C184.915 52.281 184.79 52.68 184.548 53.0106C184.29 53.3394 183.943 53.5903 183.546 53.7345C183.059 53.9045 182.545 53.9846 182.029 53.9708Z" fill="white"/>
<path d="M190.153 53.9716C189.58 53.9913 189.01 53.8685 188.498 53.6147C188.072 53.384 187.726 53.0338 187.506 52.6092C187.273 52.1384 187.149 51.6238 187.141 51.1011C187.141 50.8095 187.141 50.4979 187.141 50.1661C187.141 49.8343 187.141 49.5176 187.141 49.2109C187.149 48.6882 187.273 48.1736 187.506 47.7028C187.726 47.2782 188.072 46.928 188.498 46.6974C189.009 46.4412 189.579 46.3183 190.153 46.3404C190.599 46.3312 191.043 46.3993 191.465 46.5415C191.812 46.657 192.132 46.84 192.405 47.0794C192.643 47.295 192.837 47.5526 192.976 47.8385C193.103 48.111 193.176 48.4043 193.192 48.7032C193.195 48.7328 193.191 48.7628 193.181 48.7908C193.17 48.8187 193.153 48.8438 193.13 48.864C193.084 48.9044 193.023 48.9259 192.961 48.9244H192.364C192.305 48.9262 192.247 48.9085 192.2 48.8741C192.144 48.8237 192.108 48.7563 192.097 48.6831C192.066 48.4582 191.989 48.2416 191.871 48.0464C191.752 47.8512 191.595 47.6814 191.408 47.5469C191.024 47.3304 190.586 47.2241 190.143 47.2403C189.891 47.2299 189.639 47.269 189.402 47.3554C189.166 47.4417 188.949 47.5735 188.765 47.743C188.39 48.1635 188.193 48.7084 188.215 49.2662C188.191 49.846 188.191 50.4392 188.215 51.0458C188.188 51.6104 188.385 52.1636 188.765 52.5891C188.949 52.7586 189.166 52.8904 189.402 52.9768C189.639 53.0631 189.891 53.1022 190.143 53.0919C190.586 53.108 191.024 53.0017 191.408 52.7852C191.595 52.6508 191.752 52.4809 191.871 52.2857C191.989 52.0905 192.066 51.874 192.097 51.6491C192.108 51.5758 192.144 51.5085 192.2 51.458C192.247 51.4236 192.305 51.4059 192.364 51.4078H192.961C193.023 51.4062 193.084 51.4278 193.13 51.4681C193.153 51.4883 193.17 51.5134 193.181 51.5414C193.191 51.5693 193.195 51.5993 193.192 51.629C193.176 51.9278 193.103 52.2211 192.976 52.4936C192.837 52.7796 192.643 53.0371 192.405 53.2527C192.132 53.4921 191.812 53.6751 191.465 53.7906C191.042 53.926 190.598 53.9873 190.153 53.9716Z" fill="white"/>
<path d="M195.977 53.8658C195.943 53.8689 195.909 53.8646 195.877 53.8533C195.845 53.8421 195.815 53.824 195.791 53.8005C195.748 53.7515 195.725 53.6891 195.725 53.6245V46.6871C195.725 46.6225 195.748 46.5602 195.791 46.5111C195.815 46.4876 195.845 46.4696 195.877 46.4583C195.909 46.447 195.943 46.4427 195.977 46.4458H196.552C196.585 46.4442 196.617 46.4492 196.647 46.4604C196.677 46.4717 196.704 46.489 196.727 46.5111C196.751 46.5338 196.77 46.5613 196.782 46.5916C196.795 46.6219 196.801 46.6545 196.799 46.6871V53.6245C196.801 53.6572 196.795 53.6897 196.782 53.72C196.77 53.7504 196.751 53.7778 196.727 53.8005C196.704 53.8227 196.677 53.8399 196.647 53.8512C196.617 53.8625 196.585 53.8674 196.552 53.8658H195.977Z" fill="white"/>
<path d="M200.022 53.8658C199.988 53.8689 199.954 53.8646 199.922 53.8533C199.89 53.8421 199.861 53.824 199.837 53.8005C199.792 53.7527 199.768 53.6895 199.77 53.6245V46.6972C199.766 46.629 199.79 46.5622 199.837 46.5111C199.861 46.4876 199.89 46.4696 199.922 46.4583C199.954 46.447 199.988 46.4427 200.022 46.4458H204.5C204.534 46.4437 204.568 46.4484 204.599 46.4597C204.631 46.4709 204.66 46.4884 204.685 46.5111C204.727 46.5642 204.749 46.63 204.747 46.6972V47.0993C204.749 47.132 204.745 47.1648 204.735 47.1959C204.724 47.227 204.707 47.2557 204.685 47.2803C204.66 47.303 204.631 47.3206 204.599 47.3318C204.568 47.343 204.534 47.3478 204.5 47.3457H200.814V49.6682H204.258C204.293 49.6661 204.327 49.6713 204.359 49.6835C204.391 49.6956 204.42 49.7144 204.443 49.7386C204.467 49.7634 204.485 49.7927 204.497 49.8247C204.508 49.8567 204.513 49.8907 204.51 49.9246V50.3167C204.512 50.3481 204.507 50.3796 204.495 50.409C204.484 50.4385 204.466 50.4652 204.443 50.4876C204.42 50.5126 204.392 50.532 204.359 50.5443C204.327 50.5565 204.293 50.5612 204.258 50.558H200.814V52.966H204.587C204.621 52.9629 204.654 52.967 204.685 52.978C204.717 52.989 204.745 53.0067 204.769 53.0297C204.792 53.0528 204.811 53.0807 204.822 53.1114C204.833 53.1421 204.837 53.1748 204.834 53.2073V53.6245C204.836 53.6885 204.814 53.751 204.772 53.8005C204.748 53.8232 204.719 53.8407 204.687 53.852C204.655 53.8632 204.621 53.8679 204.587 53.8658H200.022Z" fill="white"/>
<path d="M207.677 53.8655C207.643 53.8685 207.609 53.8643 207.577 53.853C207.545 53.8417 207.516 53.8236 207.492 53.8001C207.449 53.7511 207.425 53.6887 207.425 53.6242V46.6968C207.424 46.629 207.448 46.5631 207.492 46.5108C207.516 46.4873 207.545 46.4692 207.577 46.4579C207.609 46.4466 207.643 46.4424 207.677 46.4454H208.191C208.261 46.4413 208.33 46.4609 208.387 46.5007C208.417 46.5273 208.443 46.5577 208.464 46.5912L212.063 52.0004V46.6968C212.059 46.6286 212.083 46.5619 212.13 46.5108C212.153 46.4879 212.181 46.4703 212.212 46.459C212.243 46.4477 212.277 46.4431 212.31 46.4454H212.824C212.859 46.4414 212.894 46.4451 212.927 46.4563C212.96 46.4675 212.99 46.4859 213.015 46.5101C213.039 46.5343 213.058 46.5637 213.07 46.596C213.081 46.6283 213.085 46.6628 213.081 46.6968V53.6141C213.082 53.6463 213.077 53.6785 213.066 53.7087C213.054 53.7389 213.037 53.7666 213.014 53.7901C212.991 53.8142 212.963 53.8334 212.932 53.8464C212.901 53.8594 212.868 53.8659 212.834 53.8655H212.32C212.287 53.8685 212.254 53.8646 212.223 53.8542C212.192 53.8438 212.164 53.8271 212.14 53.8051L212.058 53.7197L208.459 48.3608V53.6242C208.459 53.6897 208.433 53.7529 208.387 53.8001C208.361 53.8232 208.331 53.841 208.299 53.8522C208.266 53.8634 208.231 53.868 208.197 53.8655H207.677Z" fill="white"/>
<path d="M217.946 53.8653C217.914 53.867 217.882 53.862 217.851 53.8507C217.821 53.8395 217.794 53.8222 217.771 53.8C217.747 53.7773 217.728 53.7499 217.716 53.7196C217.703 53.6892 217.698 53.6567 217.699 53.624V47.3854H215.643C215.61 47.3868 215.577 47.3817 215.546 47.3705C215.515 47.3593 215.487 47.3421 215.463 47.32C215.439 47.297 215.421 47.2695 215.408 47.2393C215.396 47.209 215.39 47.1766 215.391 47.1441V46.6967C215.389 46.6279 215.415 46.5613 215.463 46.5107C215.487 46.4886 215.515 46.4714 215.546 46.4602C215.577 46.449 215.61 46.4439 215.643 46.4453H220.871C220.905 46.4432 220.939 46.4479 220.971 46.4592C221.003 46.4704 221.032 46.4879 221.057 46.5107C221.081 46.5351 221.1 46.5642 221.113 46.5962C221.125 46.6283 221.13 46.6625 221.128 46.6967V47.1441C221.13 47.1768 221.125 47.2094 221.112 47.2398C221.1 47.2702 221.081 47.2975 221.057 47.32C221.032 47.3428 221.003 47.3603 220.971 47.3715C220.939 47.3828 220.905 47.3875 220.871 47.3854H218.815V53.624C218.815 53.6896 218.789 53.7528 218.743 53.8C218.717 53.8226 218.687 53.84 218.654 53.8513C218.622 53.8625 218.587 53.8673 218.553 53.8653H217.946Z" fill="white"/>
<path d="M223.651 53.8658C223.617 53.8689 223.583 53.8646 223.551 53.8533C223.519 53.8421 223.49 53.824 223.466 53.8005C223.423 53.7515 223.4 53.6891 223.399 53.6245V46.6871C223.4 46.6225 223.423 46.5602 223.466 46.5111C223.49 46.4876 223.519 46.4696 223.551 46.4583C223.583 46.447 223.617 46.4427 223.651 46.4458H224.227C224.259 46.4442 224.292 46.4492 224.322 46.4604C224.352 46.4717 224.379 46.489 224.402 46.5111C224.426 46.5338 224.445 46.5613 224.457 46.5916C224.47 46.6219 224.475 46.6545 224.474 46.6871V53.6245C224.475 53.6572 224.47 53.6897 224.457 53.72C224.445 53.7504 224.426 53.7778 224.402 53.8005C224.379 53.8227 224.352 53.8399 224.322 53.8512C224.292 53.8625 224.259 53.8674 224.227 53.8658H223.651Z" fill="white"/>
<path d="M227.701 53.8658C227.667 53.8689 227.633 53.8646 227.601 53.8533C227.569 53.8421 227.54 53.824 227.516 53.8005C227.471 53.7527 227.447 53.6895 227.449 53.6245V46.6972C227.446 46.629 227.47 46.5622 227.516 46.5111C227.54 46.4876 227.569 46.4696 227.601 46.4583C227.633 46.447 227.667 46.4427 227.701 46.4458H232.123C232.156 46.4427 232.191 46.447 232.223 46.4583C232.255 46.4696 232.284 46.4876 232.308 46.5111C232.354 46.5622 232.378 46.629 232.375 46.6972V47.1245C232.377 47.1575 232.372 47.1906 232.36 47.2217C232.349 47.2529 232.331 47.2814 232.308 47.3054C232.282 47.327 232.253 47.3435 232.221 47.3538C232.19 47.3642 232.156 47.3682 232.123 47.3658H228.524V49.8391H231.927C231.961 49.837 231.995 49.8417 232.027 49.853C232.059 49.8642 232.088 49.8817 232.112 49.9045C232.156 49.9568 232.18 50.0227 232.179 50.0905V50.5178C232.179 50.5823 232.155 50.6447 232.112 50.6937C232.088 50.7164 232.059 50.734 232.027 50.7452C231.995 50.7565 231.961 50.7612 231.927 50.7591H228.482V53.6245C228.483 53.6901 228.457 53.7533 228.41 53.8005C228.385 53.8236 228.355 53.8413 228.322 53.8526C228.29 53.8638 228.255 53.8683 228.22 53.8658H227.701Z" fill="white"/>
<path d="M235.114 53.8654C235.081 53.8678 235.048 53.8631 235.017 53.8519C234.986 53.8406 234.958 53.8229 234.934 53.8001C234.889 53.7524 234.865 53.6891 234.867 53.6241V46.6867C234.865 46.6217 234.889 46.5585 234.934 46.5108C234.958 46.4879 234.986 46.4703 235.017 46.459C235.048 46.4477 235.081 46.4431 235.114 46.4454H235.68C235.713 46.444 235.746 46.4491 235.776 46.4603C235.807 46.4715 235.836 46.4887 235.86 46.5108C235.906 46.558 235.932 46.6211 235.932 46.6867V53.6241C235.932 53.6897 235.906 53.7529 235.86 53.8001C235.836 53.8222 235.807 53.8393 235.776 53.8506C235.746 53.8618 235.713 53.8669 235.68 53.8654H235.114Z" fill="white"/>
<path d="M241.644 53.9716C241.072 53.9913 240.504 53.8685 239.993 53.6147C239.565 53.3871 239.218 53.036 239.001 52.6093C238.764 52.1397 238.638 51.6245 238.631 51.1011C238.631 50.8095 238.631 50.4979 238.631 50.1661C238.631 49.8343 238.631 49.5176 238.631 49.2109C238.638 48.6875 238.764 48.1723 239.001 47.7028C239.218 47.276 239.565 46.925 239.993 46.6974C240.503 46.4412 241.071 46.3183 241.644 46.3404C242.089 46.3312 242.533 46.3993 242.955 46.5415C243.306 46.6546 243.63 46.8378 243.906 47.0794C244.143 47.295 244.337 47.5526 244.477 47.8385C244.603 48.111 244.676 48.4043 244.693 48.7032C244.696 48.7328 244.692 48.7628 244.681 48.7908C244.671 48.8187 244.653 48.8438 244.631 48.8641C244.586 48.9036 244.527 48.9252 244.466 48.9244H243.87C243.809 48.927 243.749 48.9092 243.7 48.8741C243.645 48.8237 243.609 48.7563 243.597 48.6831C243.563 48.4558 243.481 48.2378 243.357 48.0424C243.234 47.8471 243.07 47.6785 242.878 47.5469C242.494 47.3299 242.056 47.2236 241.613 47.2403C241.361 47.2305 241.109 47.2699 240.872 47.3562C240.636 47.4425 240.419 47.574 240.235 47.743C239.867 48.1665 239.678 48.7111 239.705 49.2662C239.681 49.846 239.681 50.4392 239.705 51.0458C239.678 51.6105 239.875 52.1636 240.256 52.5891C240.44 52.7582 240.656 52.8897 240.893 52.976C241.129 53.0623 241.381 53.1017 241.633 53.0919C242.069 53.1048 242.5 52.9986 242.878 52.7852C243.065 52.6508 243.222 52.4809 243.34 52.2857C243.459 52.0905 243.536 51.874 243.567 51.6491C243.578 51.5758 243.614 51.5085 243.669 51.458C243.718 51.4229 243.778 51.4052 243.839 51.4078H244.436C244.496 51.407 244.555 51.4285 244.6 51.4681C244.622 51.4883 244.64 51.5134 244.65 51.5414C244.661 51.5693 244.665 51.5993 244.662 51.629C244.646 51.9278 244.572 52.2211 244.446 52.4936C244.306 52.7796 244.113 53.0371 243.875 53.2527C243.602 53.4932 243.282 53.6763 242.934 53.7906C242.518 53.9237 242.081 53.9849 241.644 53.9716Z" fill="white"/>
<path d="M179.839 65.1717C179.805 65.1729 179.771 65.1672 179.74 65.1551C179.708 65.143 179.679 65.1247 179.654 65.1014C179.612 65.0523 179.59 64.9895 179.593 64.9254V58.0031C179.583 57.936 179.599 57.8676 179.639 57.812C179.663 57.7887 179.692 57.7704 179.724 57.7583C179.756 57.7462 179.79 57.7405 179.824 57.7417H184.302C184.336 57.7396 184.371 57.7448 184.403 57.7569C184.435 57.7691 184.464 57.7879 184.487 57.812C184.511 57.8369 184.529 57.8662 184.541 57.8982C184.552 57.9302 184.557 57.9642 184.554 57.998V58.4002C184.556 58.4332 184.551 58.4664 184.54 58.4975C184.528 58.5286 184.511 58.5571 184.487 58.5812C184.462 58.6028 184.433 58.6192 184.401 58.6296C184.369 58.6399 184.336 58.644 184.302 58.6415H180.616V60.964H184.066C184.1 60.9629 184.134 60.9686 184.166 60.9806C184.197 60.9927 184.226 61.011 184.251 61.0344C184.295 61.0865 184.317 61.153 184.312 61.2204V61.6125C184.315 61.6767 184.293 61.7395 184.251 61.7885C184.226 61.8112 184.197 61.8287 184.165 61.84C184.133 61.8512 184.099 61.8559 184.066 61.8538H180.616V64.2618H184.39C184.423 64.2587 184.458 64.263 184.49 64.2743C184.522 64.2855 184.551 64.3036 184.575 64.3271C184.599 64.3506 184.617 64.3791 184.629 64.4103C184.64 64.4416 184.645 64.475 184.642 64.5082V64.9204C184.642 64.9851 184.618 65.0478 184.575 65.0963C184.551 65.1205 184.522 65.1393 184.49 65.1514C184.458 65.1636 184.424 65.1688 184.39 65.1667L179.839 65.1717Z" fill="white"/>
<path d="M187.492 65.1712C187.458 65.1723 187.424 65.1667 187.393 65.1546C187.361 65.1425 187.332 65.1242 187.307 65.1008C187.265 65.0518 187.243 64.989 187.246 64.9248V58.0025C187.241 57.9351 187.263 57.8686 187.307 57.8165C187.332 57.7931 187.361 57.7748 187.393 57.7627C187.424 57.7506 187.458 57.745 187.492 57.7461H188.007C188.042 57.7431 188.077 57.7469 188.11 57.7572C188.144 57.7676 188.175 57.7843 188.202 57.8064C188.237 57.8276 188.264 57.8594 188.279 57.8969L191.878 63.3011V58.0025C191.876 57.9345 191.9 57.8681 191.945 57.8165C191.969 57.7923 191.998 57.7735 192.03 57.7614C192.061 57.7492 192.096 57.744 192.13 57.7461H192.644C192.679 57.7439 192.714 57.749 192.747 57.7611C192.78 57.7732 192.81 57.792 192.835 57.8163C192.859 57.8406 192.879 57.8697 192.891 57.9018C192.903 57.9339 192.909 57.9683 192.906 58.0025V64.9148C192.907 64.9819 192.881 65.0467 192.834 65.0958C192.812 65.1204 192.784 65.14 192.753 65.153C192.722 65.166 192.688 65.1722 192.654 65.1712H192.14C192.107 65.1726 192.074 65.1675 192.044 65.1563C192.013 65.1451 191.984 65.1279 191.96 65.1058L191.878 65.0204L188.279 59.6665V64.9248C188.281 64.957 188.275 64.9892 188.264 65.0194C188.252 65.0497 188.235 65.0773 188.212 65.1008C188.16 65.1474 188.092 65.1726 188.022 65.1712H187.492Z" fill="white"/>
<path d="M197.766 65.1717C197.733 65.1723 197.7 65.1664 197.669 65.1543C197.638 65.1422 197.61 65.124 197.587 65.101C197.563 65.078 197.544 65.0506 197.532 65.0204C197.52 64.9902 197.514 64.9579 197.514 64.9253V58.6917H195.458C195.425 58.6923 195.393 58.6864 195.363 58.6743C195.333 58.6622 195.306 58.6442 195.283 58.6213C195.259 58.5988 195.24 58.5714 195.227 58.5411C195.215 58.5107 195.209 58.478 195.211 58.4454V58.003C195.209 57.97 195.214 57.937 195.225 57.906C195.237 57.875 195.254 57.8465 195.278 57.8225C195.301 57.7985 195.329 57.7794 195.36 57.7663C195.391 57.7532 195.424 57.7465 195.458 57.7466H200.687C200.722 57.7444 200.757 57.7495 200.789 57.7616C200.822 57.7737 200.852 57.7925 200.877 57.8168C200.902 57.841 200.921 57.8702 200.933 57.9023C200.946 57.9344 200.951 57.9687 200.949 58.003V58.4454C200.949 58.4779 200.944 58.5103 200.931 58.5405C200.919 58.5708 200.9 58.5983 200.877 58.6213C200.852 58.6451 200.822 58.6636 200.789 58.6757C200.756 58.6878 200.721 58.6932 200.687 58.6917H198.63V64.9253C198.632 64.958 198.626 64.9906 198.614 65.021C198.601 65.0514 198.582 65.0788 198.558 65.1013C198.534 65.1247 198.505 65.1429 198.473 65.155C198.441 65.1671 198.407 65.1728 198.373 65.1717H197.766Z" fill="white"/>
<path d="M203.467 65.1717C203.433 65.1729 203.399 65.1672 203.367 65.1551C203.335 65.143 203.306 65.1247 203.282 65.1014C203.24 65.0523 203.218 64.9895 203.22 64.9254V58.0031C203.216 57.9333 203.24 57.8647 203.287 57.812C203.311 57.7887 203.34 57.7704 203.372 57.7583C203.404 57.7462 203.438 57.7405 203.472 57.7417H207.95C207.985 57.7396 208.019 57.7448 208.051 57.7569C208.083 57.7691 208.112 57.7879 208.135 57.812C208.159 57.8369 208.177 57.8662 208.189 57.8982C208.2 57.9302 208.205 57.9642 208.202 57.998V58.4002C208.204 58.4332 208.2 58.4664 208.188 58.4975C208.177 58.5286 208.159 58.5571 208.135 58.5812C208.11 58.6028 208.081 58.6192 208.049 58.6296C208.017 58.6399 207.984 58.644 207.95 58.6415H204.264V60.964H207.714C207.748 60.962 207.782 60.9672 207.814 60.9793C207.846 60.9915 207.875 61.0103 207.899 61.0344C207.944 61.086 207.968 61.1524 207.966 61.2204V61.6125C207.966 61.6773 207.943 61.74 207.899 61.7885C207.875 61.812 207.846 61.8301 207.814 61.8414C207.782 61.8527 207.748 61.8569 207.714 61.8538H204.264V64.2618H208.038C208.071 64.26 208.105 64.2649 208.137 64.2761C208.169 64.2873 208.198 64.3047 208.223 64.3272C208.247 64.3507 208.265 64.3791 208.277 64.4104C208.288 64.4417 208.293 64.4751 208.29 64.5082V64.9204C208.291 64.9526 208.286 64.9848 208.274 65.015C208.263 65.0452 208.245 65.0729 208.223 65.0963C208.199 65.1205 208.17 65.1393 208.138 65.1514C208.106 65.1636 208.072 65.1688 208.038 65.1667L203.467 65.1717Z" fill="white"/>
<path d="M211.128 65.1718C211.094 65.1739 211.06 65.1687 211.028 65.1565C210.996 65.1444 210.967 65.1256 210.943 65.1014C210.92 65.0779 210.903 65.0503 210.891 65.0201C210.88 64.9898 210.875 64.9577 210.876 64.9255V58.0031C210.874 57.9693 210.878 57.9353 210.89 57.9033C210.901 57.8713 210.919 57.842 210.943 57.8171C210.967 57.793 210.996 57.7742 211.028 57.762C211.06 57.7499 211.094 57.7446 211.128 57.7467H213.771C214.466 57.7089 215.153 57.9079 215.714 58.3098C215.958 58.5135 216.149 58.7701 216.273 59.059C216.397 59.3479 216.451 59.6611 216.429 59.9738C216.45 60.4514 216.303 60.9216 216.012 61.3059C215.721 61.6555 215.323 61.9055 214.876 62.0198L216.547 64.84C216.567 64.8757 216.579 64.9151 216.583 64.9556C216.583 64.9844 216.577 65.0128 216.564 65.0389C216.552 65.0649 216.534 65.088 216.511 65.1064C216.468 65.1471 216.411 65.1704 216.352 65.1718H215.838C215.788 65.1749 215.738 65.168 215.691 65.1516C215.644 65.1351 215.601 65.1095 215.565 65.0763C215.512 65.0154 215.462 64.9516 215.416 64.8853L213.843 62.1907H211.946V64.9255C211.946 64.958 211.94 64.9904 211.928 65.0206C211.916 65.0509 211.897 65.0784 211.874 65.1014C211.848 65.1252 211.819 65.1437 211.786 65.1558C211.753 65.1679 211.718 65.1733 211.683 65.1718H211.128ZM211.94 61.2909H213.73C214.162 61.3214 214.592 61.2021 214.943 60.954C215.084 60.8274 215.193 60.671 215.263 60.4968C215.332 60.3225 215.36 60.135 215.344 59.9486C215.36 59.7627 215.332 59.5758 215.263 59.4017C215.195 59.2277 215.087 59.0709 214.948 58.9432C214.598 58.6889 214.165 58.5675 213.73 58.6013H211.94V61.2909Z" fill="white"/>
<path d="M219.313 65.172C219.279 65.1732 219.245 65.1675 219.213 65.1554C219.181 65.1433 219.152 65.125 219.128 65.1016C219.085 65.0526 219.063 64.9898 219.066 64.9257V58.0033C219.062 57.9359 219.084 57.8695 219.128 57.8173C219.152 57.794 219.181 57.7757 219.213 57.7636C219.245 57.7515 219.279 57.7458 219.313 57.747H222.069C222.546 57.7363 223.021 57.8236 223.462 58.0033C223.839 58.1569 224.158 58.4202 224.377 58.7574C224.604 59.138 224.717 59.5738 224.701 60.0142C224.718 60.4532 224.605 60.8877 224.377 61.2659C224.157 61.6019 223.838 61.8648 223.462 62.02C223.021 62.1997 222.546 62.2871 222.069 62.2764H220.151V64.9257C220.152 64.9582 220.146 64.9906 220.133 65.0209C220.121 65.0511 220.102 65.0786 220.079 65.1016C220.053 65.1252 220.024 65.1435 219.991 65.1556C219.958 65.1677 219.923 65.1733 219.889 65.172H219.313ZM220.135 61.3866H222.012C222.444 61.4171 222.872 61.2919 223.215 61.0347C223.353 60.9055 223.46 60.7489 223.53 60.5753C223.6 60.4018 223.631 60.2156 223.621 60.0293C223.631 59.8444 223.601 59.6596 223.533 59.4866C223.466 59.3136 223.363 59.156 223.23 59.0239C222.886 58.7559 222.45 58.6264 222.012 58.6619H220.135V61.3866Z" fill="white"/>
<path d="M227.359 65.172C227.325 65.1731 227.291 65.1675 227.259 65.1554C227.227 65.1433 227.198 65.125 227.174 65.1016C227.131 65.0526 227.109 64.9898 227.112 64.9257V58.0033C227.108 57.9359 227.13 57.8694 227.174 57.8173C227.198 57.7939 227.227 57.7756 227.259 57.7635C227.291 57.7514 227.325 57.7458 227.359 57.7469H230.022C230.715 57.7082 231.401 57.9073 231.96 58.31C232.205 58.5132 232.397 58.7695 232.522 59.0585C232.647 59.3474 232.701 59.6609 232.68 59.974C232.701 60.4516 232.554 60.9219 232.264 61.3061C231.971 61.6547 231.573 61.9044 231.127 62.02L232.798 64.8402C232.817 64.8761 232.827 64.9156 232.829 64.9558C232.83 64.9843 232.825 65.0125 232.813 65.0386C232.802 65.0647 232.784 65.088 232.762 65.1066C232.718 65.1458 232.662 65.1689 232.603 65.172H232.089C232.039 65.1754 231.989 65.1687 231.942 65.1522C231.895 65.1358 231.852 65.11 231.816 65.0765L231.662 64.8855L230.12 62.1909H228.222V64.9257C228.223 64.9582 228.217 64.9906 228.205 65.0208C228.192 65.0511 228.174 65.0786 228.15 65.1016C228.125 65.1251 228.095 65.1435 228.063 65.1556C228.03 65.1677 227.995 65.1732 227.96 65.172H227.359ZM228.176 61.2911H229.965C230.398 61.3216 230.827 61.2024 231.179 60.9542C231.32 60.8276 231.429 60.6712 231.498 60.497C231.568 60.3227 231.596 60.1352 231.58 59.9488C231.595 59.7629 231.568 59.576 231.499 59.4019C231.431 59.2279 231.323 59.0712 231.184 58.9434C230.832 58.6908 230.4 58.5695 229.965 58.6016H228.176V61.2911Z" fill="white"/>
<path d="M235.549 65.1716C235.515 65.1737 235.481 65.1685 235.449 65.1563C235.417 65.1442 235.388 65.1254 235.364 65.1012C235.32 65.0527 235.297 64.99 235.297 64.9253V57.9929C235.297 57.9282 235.32 57.8655 235.364 57.8169C235.388 57.7928 235.417 57.774 235.449 57.7618C235.481 57.7497 235.515 57.7445 235.549 57.7465H236.125C236.158 57.7459 236.19 57.7518 236.22 57.7639C236.25 57.776 236.277 57.7941 236.3 57.8169C236.324 57.8394 236.343 57.8668 236.356 57.8972C236.368 57.9275 236.374 57.9602 236.372 57.9929V64.9253C236.374 64.9579 236.368 64.9906 236.356 65.021C236.343 65.0513 236.324 65.0787 236.3 65.1012C236.277 65.1241 236.25 65.1421 236.22 65.1542C236.19 65.1663 236.158 65.1723 236.125 65.1716H235.549Z" fill="white"/>
<path d="M241.787 65.2768C241.245 65.2923 240.705 65.1964 240.203 64.9953C239.816 64.8388 239.478 64.5857 239.221 64.2613C239.003 63.9851 238.875 63.6501 238.856 63.3011C238.857 63.2725 238.864 63.2444 238.877 63.2185C238.889 63.1926 238.907 63.1694 238.928 63.1503C238.95 63.1278 238.977 63.11 239.006 63.0979C239.035 63.0858 239.066 63.0797 239.098 63.0799H239.648C239.684 63.0767 239.719 63.0809 239.753 63.0921C239.787 63.1034 239.818 63.1215 239.844 63.1453C239.887 63.1844 239.917 63.2351 239.931 63.2911C239.975 63.4781 240.067 63.6511 240.198 63.7938C240.36 63.9777 240.565 64.1209 240.795 64.211C241.111 64.3303 241.449 64.385 241.787 64.3719C242.268 64.4088 242.748 64.2962 243.16 64.0502C243.299 63.9515 243.411 63.8213 243.488 63.6706C243.564 63.52 243.601 63.3535 243.597 63.1855C243.602 63.0757 243.584 62.966 243.544 62.8631C243.504 62.7602 243.444 62.6664 243.365 62.5873C243.157 62.4072 242.914 62.2688 242.651 62.1801C242.337 62.0594 241.921 61.9287 241.417 61.788C240.964 61.6623 240.525 61.494 240.106 61.2853C239.791 61.1378 239.523 60.9104 239.329 60.6267C239.146 60.3229 239.057 59.9737 239.072 59.6213C239.073 59.2624 239.184 58.9119 239.391 58.6159C239.618 58.2991 239.932 58.0516 240.296 57.902C240.749 57.7131 241.238 57.6222 241.73 57.6356C242.13 57.6288 242.528 57.6883 242.908 57.8115C243.216 57.9116 243.501 58.0705 243.746 58.279C243.956 58.4532 244.13 58.6647 244.26 58.9024C244.368 59.1047 244.43 59.3278 244.44 59.5559C244.44 59.6073 244.422 59.657 244.389 59.6967C244.367 59.7212 244.34 59.7404 244.31 59.7527C244.28 59.7649 244.247 59.7699 244.214 59.7671H243.638C243.583 59.7654 243.53 59.7498 243.484 59.7218C243.453 59.7055 243.427 59.6833 243.405 59.6565C243.384 59.6297 243.369 59.5989 243.36 59.566C243.332 59.4152 243.272 59.2719 243.183 59.1454C243.095 59.019 242.98 58.9122 242.846 58.832C242.509 58.6227 242.114 58.5192 241.715 58.5354C241.317 58.5192 240.922 58.6115 240.574 58.8019C240.43 58.8868 240.313 59.0085 240.235 59.1538C240.157 59.2991 240.121 59.4625 240.132 59.6263C240.125 59.8448 240.198 60.0583 240.337 60.2296C240.52 60.4154 240.743 60.5581 240.99 60.6468C241.37 60.7949 241.758 60.9224 242.152 61.0289C242.639 61.1573 243.113 61.3255 243.571 61.5316C243.9 61.6692 244.183 61.8938 244.389 62.1801C244.582 62.4803 244.675 62.8314 244.656 63.1855C244.668 63.5943 244.541 63.9955 244.296 64.3267C244.032 64.6584 243.674 64.9081 243.268 65.0455C242.793 65.2107 242.291 65.2891 241.787 65.2768Z" fill="white"/>
<path d="M247.427 65.1716C247.393 65.1737 247.359 65.1685 247.327 65.1563C247.295 65.1442 247.266 65.1254 247.242 65.1012C247.22 65.0777 247.202 65.0501 247.191 65.0199C247.179 64.9896 247.174 64.9575 247.175 64.9253V58.0029C247.173 57.9691 247.178 57.9351 247.189 57.9031C247.201 57.8711 247.219 57.8418 247.242 57.8169C247.266 57.7928 247.295 57.774 247.327 57.7618C247.359 57.7497 247.393 57.7445 247.427 57.7465H251.906C251.94 57.7454 251.974 57.751 252.006 57.7631C252.037 57.7752 252.066 57.7935 252.091 57.8169C252.135 57.869 252.157 57.9355 252.152 58.0029V58.4051C252.158 58.438 252.155 58.4716 252.144 58.5032C252.134 58.5348 252.116 58.5636 252.092 58.5871C252.068 58.6106 252.038 58.6283 252.006 58.6386C251.974 58.6489 251.939 58.6516 251.906 58.6464H248.219V60.9689H251.664C251.698 60.9668 251.732 60.972 251.764 60.9842C251.796 60.9964 251.825 61.0152 251.849 61.0393C251.873 61.0641 251.891 61.0935 251.902 61.1255C251.914 61.1575 251.918 61.1915 251.916 61.2253V61.6174C251.917 61.6496 251.912 61.6818 251.901 61.712C251.889 61.7422 251.872 61.7699 251.849 61.7934C251.825 61.8169 251.796 61.835 251.764 61.8463C251.732 61.8575 251.698 61.8618 251.664 61.8587H248.219V64.2667H251.993C252.061 64.2652 252.127 64.2885 252.178 64.3321C252.2 64.3567 252.217 64.3854 252.228 64.4165C252.238 64.4476 252.242 64.4804 252.24 64.513V64.9253C252.242 64.9894 252.22 65.0522 252.178 65.1012C252.154 65.1246 252.125 65.1429 252.093 65.155C252.061 65.1671 252.027 65.1727 251.993 65.1716H247.427Z" fill="white"/>
<path d="M257.271 65.2777C256.729 65.2932 256.189 65.1973 255.687 64.9961C255.3 64.8397 254.961 64.5866 254.705 64.2622C254.486 63.986 254.359 63.651 254.34 63.302C254.341 63.2734 254.348 63.2453 254.36 63.2194C254.373 63.1934 254.39 63.1702 254.412 63.1512C254.434 63.1287 254.46 63.1109 254.49 63.0988C254.519 63.0867 254.55 63.0805 254.582 63.0808H255.132C255.168 63.0776 255.203 63.0817 255.237 63.093C255.271 63.1043 255.301 63.1224 255.327 63.1462C255.371 63.1852 255.401 63.236 255.415 63.2919C255.459 63.479 255.551 63.652 255.682 63.7947C255.844 63.9786 256.048 64.1217 256.279 64.2119C256.595 64.3311 256.932 64.3859 257.271 64.3728C257.752 64.4097 258.232 64.2971 258.644 64.051C258.785 63.9543 258.899 63.8244 258.975 63.6733C259.052 63.5222 259.088 63.3548 259.081 63.1864C259.086 63.0765 259.068 62.9668 259.028 62.864C258.988 62.7611 258.927 62.6673 258.849 62.5881C258.642 62.409 258.401 62.2707 258.14 62.1809C257.821 62.0603 257.405 61.9296 256.901 61.7888C256.448 61.6632 256.009 61.4948 255.59 61.2861C255.275 61.1387 255.007 60.9112 254.813 60.6276C254.63 60.3238 254.541 59.9745 254.556 59.6221C254.556 59.2632 254.668 58.9128 254.875 58.6167C255.102 58.3 255.415 58.0525 255.78 57.9029C256.233 57.7146 256.722 57.6237 257.214 57.6364C257.614 57.6297 258.012 57.6892 258.392 57.8124C258.701 57.9136 258.987 58.0724 259.235 58.2799C259.444 58.4551 259.618 58.6664 259.749 58.9033C259.857 59.1062 259.92 59.3287 259.934 59.5568C259.932 59.6087 259.912 59.6584 259.878 59.6975C259.856 59.7221 259.829 59.7413 259.799 59.7535C259.769 59.7658 259.736 59.7707 259.703 59.7679H259.132C259.076 59.7671 259.021 59.7515 258.973 59.7227C258.942 59.7064 258.916 59.6842 258.894 59.6574C258.873 59.6305 258.858 59.5997 258.849 59.5668C258.821 59.4161 258.761 59.2728 258.672 59.1463C258.584 59.0198 258.469 58.913 258.335 58.8329C257.998 58.6236 257.603 58.5201 257.204 58.5363C256.806 58.5201 256.411 58.6123 256.063 58.8027C255.919 58.8877 255.802 59.0094 255.724 59.1547C255.646 59.3 255.61 59.4634 255.621 59.6272C255.614 59.8456 255.687 60.0592 255.826 60.2304C256.009 60.4162 256.232 60.5589 256.479 60.6477C256.859 60.795 257.247 60.9225 257.641 61.0297C258.128 61.1582 258.602 61.3263 259.06 61.5324C259.389 61.6701 259.672 61.8946 259.878 62.1809C260.071 62.4811 260.164 62.8323 260.145 63.1864C260.157 63.5951 260.03 63.9963 259.785 64.3275C259.521 64.6593 259.163 64.909 258.757 65.0464C258.28 65.2122 257.777 65.2906 257.271 65.2777Z" fill="white"/>
<path d="M67.4144 32.5411L58.129 47.0746L55.3475 51.423L46.5352 36.3417L67.2447 32.2898C67.278 32.2789 67.3141 32.2791 67.3473 32.2903C67.3805 32.3015 67.409 32.3231 67.4283 32.3517C67.4476 32.3804 67.4568 32.4145 67.4542 32.4488C67.4517 32.483 67.4377 32.5155 67.4144 32.5411Z" fill="url(#paint0_linear_2001_1115)"/>
<path d="M63.4044 65.207L30.1139 81.4899C30.0827 81.5037 30.048 81.508 30.0144 81.5022C29.9807 81.4964 29.9496 81.4808 29.9251 81.4575C29.9006 81.4341 29.884 81.4041 29.8773 81.3713C29.8706 81.3385 29.8742 81.3045 29.8876 81.2737L35.6769 69.9778L38.119 65.207H63.4044Z" fill="url(#paint1_linear_2001_1115)"/>
<path d="M58.129 47.0744L55.3475 51.4279L46.5352 36.3516L58.129 47.0744Z" fill="url(#paint2_linear_2001_1115)"/>
<path d="M63.4051 65.207L35.6621 69.9778L38.1043 65.207H63.4051Z" fill="url(#paint3_linear_2001_1115)"/>
<path d="M29.956 65.2072H63.406L46.537 36.3516L29.8121 64.9659C29.7976 64.9905 29.79 65.0184 29.79 65.0467C29.7901 65.0751 29.7978 65.1029 29.8124 65.1274C29.8271 65.1519 29.848 65.1722 29.8733 65.1862C29.8985 65.2002 29.927 65.2075 29.956 65.2072Z" fill="url(#paint4_linear_2001_1115)"/>
<defs>
<linearGradient id="paint0_linear_2001_1115" x1="52.8334" y1="31.3698" x2="67.6495" y2="50.4504" gradientUnits="userSpaceOnUse">
<stop stop-color="#FDB62B"/>
<stop offset="1" stop-color="#F06134"/>
</linearGradient>
<linearGradient id="paint1_linear_2001_1115" x1="36.5355" y1="82.1836" x2="52.3921" y2="62.3792" gradientUnits="userSpaceOnUse">
<stop stop-color="#FDB62B"/>
<stop offset="1" stop-color="#F06134"/>
</linearGradient>
<linearGradient id="paint2_linear_2001_1115" x1="53.9336" y1="45.0837" x2="46.5867" y2="28.9309" gradientUnits="userSpaceOnUse">
<stop stop-color="#F06134"/>
<stop offset="1" stop-color="#FDB62B"/>
</linearGradient>
<linearGradient id="paint3_linear_2001_1115" x1="44.3099" y1="67.0972" x2="19.4206" y2="68.8268" gradientUnits="userSpaceOnUse">
<stop stop-color="#F06134"/>
<stop offset="1" stop-color="#FDB62B"/>
</linearGradient>
<linearGradient id="paint4_linear_2001_1115" x1="34.1926" y1="38.2669" x2="45.8352" y2="64.6494" gradientUnits="userSpaceOnUse">
<stop stop-color="white"/>
<stop offset="1" stop-color="#FDB62B"/>
</linearGradient>
</defs>
</svg>
