<svg width="835" height="835" viewBox="0 0 835 835" fill="none" xmlns="http://www.w3.org/2000/svg">
<path d="M656.333 203.314L517.537 425.372L415.892 247.417L653.908 199.786C654.356 199.689 654.823 199.729 655.249 199.898C655.675 200.068 656.041 200.36 656.301 200.738C656.561 201.116 656.703 201.562 656.708 202.021C656.714 202.48 656.583 202.93 656.333 203.314Z" fill="url(#paint0_linear_3_1470)"/>
<path d="M225.28 588.001H610.745L415.89 247.417L223.24 584.528C223.036 584.882 222.928 585.285 222.93 585.694C222.931 586.104 223.041 586.505 223.249 586.858C223.456 587.211 223.753 587.503 224.11 587.704C224.467 587.904 224.87 588.007 225.28 588.001Z" fill="url(#paint1_linear_3_1470)"/>
<path d="M610.751 588.001L227.491 779.628C227.051 779.829 226.56 779.891 226.084 779.806C225.608 779.72 225.17 779.491 224.828 779.149C224.486 778.807 224.257 778.368 224.171 777.892C224.085 777.416 224.147 776.925 224.349 776.485L318.607 588.001H610.751Z" fill="url(#paint2_linear_3_1470)"/>
<path d="M415.892 247.417L517.537 425.261L549.728 373.937L415.892 247.417Z" fill="url(#paint3_linear_3_1470)"/>
<path d="M610.528 588.001L290.381 644.342L318.549 588.001H610.528Z" fill="url(#paint4_linear_3_1470)"/>
<defs>
<linearGradient id="paint0_linear_3_1470" x1="696.296" y1="374.323" x2="446.194" y2="233.882" gradientUnits="userSpaceOnUse">
<stop stop-color="#F26029"/>
<stop offset="1" stop-color="#FFB700"/>
</linearGradient>
<linearGradient id="paint1_linear_3_1470" x1="273.566" y1="269.964" x2="413.108" y2="579.002" gradientUnits="userSpaceOnUse">
<stop stop-color="white"/>
<stop offset="1" stop-color="#FFB700"/>
</linearGradient>
<linearGradient id="paint2_linear_3_1470" x1="300.968" y1="787.787" x2="488.63" y2="558.696" gradientUnits="userSpaceOnUse">
<stop stop-color="#FFB700"/>
<stop offset="1" stop-color="#F26029"/>
</linearGradient>
<linearGradient id="paint3_linear_3_1470" x1="501.276" y1="350.397" x2="413.339" y2="161.314" gradientUnits="userSpaceOnUse">
<stop stop-color="#F26029"/>
<stop offset="1" stop-color="#FFB700"/>
</linearGradient>
<linearGradient id="paint4_linear_3_1470" x1="390.152" y1="610.328" x2="102.857" y2="629.894" gradientUnits="userSpaceOnUse">
<stop stop-color="#F26029"/>
<stop offset="1" stop-color="#FFB700"/>
</linearGradient>
</defs>
</svg>
