<svg width="835" height="835" viewBox="0 0 835 835" fill="none" xmlns="http://www.w3.org/2000/svg">
<path d="M418.052 588.198V826.255C418.042 826.577 417.935 826.889 417.744 827.15C417.554 827.41 417.289 827.607 416.984 827.714C416.68 827.822 416.35 827.835 416.038 827.751C415.726 827.668 415.446 827.492 415.236 827.247L223.171 588.198H418.052Z" fill="url(#paint0_linear_3_1487)"/>
<path d="M418.052 655.288V588.198H223.171L418.052 655.288Z" fill="url(#paint1_linear_3_1487)"/>
<path d="M563.011 502.174L417.6 247.811L606.227 151.942C606.48 151.805 606.766 151.741 607.054 151.758C607.341 151.775 607.618 151.873 607.853 152.039C608.089 152.205 608.272 152.434 608.384 152.699C608.496 152.965 608.532 153.256 608.487 153.541L563.011 502.174Z" fill="url(#paint2_linear_3_1487)"/>
<path d="M417.661 247.81L563.017 502.173L574.097 415.897L417.661 247.81Z" fill="url(#paint3_linear_3_1487)"/>
<path d="M223.026 588.45H609.594C609.87 588.446 610.14 588.371 610.378 588.231C610.617 588.092 610.815 587.893 610.954 587.655C611.093 587.416 611.167 587.145 611.17 586.869C611.173 586.593 611.105 586.321 610.972 586.079L417.605 247.81L223.026 588.45Z" fill="url(#paint4_linear_3_1487)"/>
<defs>
<linearGradient id="paint0_linear_3_1487" x1="399.392" y1="845.61" x2="278.024" y2="448.165" gradientUnits="userSpaceOnUse">
<stop stop-color="#FFB700"/>
<stop offset="1" stop-color="#F26029"/>
</linearGradient>
<linearGradient id="paint1_linear_3_1487" x1="339.625" y1="596.258" x2="67.7257" y2="482.412" gradientUnits="userSpaceOnUse">
<stop stop-color="#F26029"/>
<stop offset="1" stop-color="#FFB700"/>
</linearGradient>
<linearGradient id="paint2_linear_3_1487" x1="515.607" y1="158.502" x2="490.079" y2="591.812" gradientUnits="userSpaceOnUse">
<stop stop-color="#FFB700"/>
<stop offset="1" stop-color="#F26029"/>
</linearGradient>
<linearGradient id="paint3_linear_3_1487" x1="503.155" y1="359.17" x2="432.362" y2="93.3445" gradientUnits="userSpaceOnUse">
<stop stop-color="#F26029"/>
<stop offset="1" stop-color="#FFB700"/>
</linearGradient>
<linearGradient id="paint4_linear_3_1487" x1="274.234" y1="271.019" x2="413.445" y2="579.285" gradientUnits="userSpaceOnUse">
<stop stop-color="white"/>
<stop offset="1" stop-color="#FFB700"/>
</linearGradient>
</defs>
</svg>
