<svg width="1440" height="404" viewBox="0 0 1440 404" fill="none" xmlns="http://www.w3.org/2000/svg">
<path d="M401.712 18.6267L142.616 384.752H-7L-7 18.6267L82.3852 18.6267L82.3852 315.744L292.638 18.6267L401.712 18.6267Z" fill="#061E30"/>
<path d="M1296.42 0C1256.11 0 1216.7 11.8276 1183.18 33.987C1149.66 56.1465 1123.54 87.6426 1108.11 124.492C1092.69 161.342 1088.65 201.891 1096.51 241.01C1104.38 280.13 1123.79 316.064 1152.3 344.267C1180.8 372.471 1217.12 391.678 1256.66 399.459C1296.2 407.241 1337.18 403.247 1374.42 387.983C1411.67 372.719 1443.5 346.871 1465.9 313.707C1488.29 280.543 1500.25 241.553 1500.25 201.667C1500.18 148.202 1478.68 96.9457 1440.47 59.1401C1402.26 21.3346 1350.46 0.06626 1296.42 0ZM1296.42 314.945C1273.78 314.955 1251.64 308.32 1232.8 295.879C1213.97 283.438 1199.28 265.749 1190.61 245.051C1181.94 224.353 1179.66 201.575 1184.08 179.598C1188.49 157.621 1199.39 137.432 1215.4 121.585C1231.41 105.738 1251.81 94.9442 1274.02 90.5693C1296.23 86.1944 1319.25 88.4347 1340.17 97.007C1361.1 105.579 1378.98 120.098 1391.56 138.728C1404.15 157.358 1410.86 179.261 1410.86 201.667C1410.78 231.663 1398.7 260.407 1377.25 281.608C1355.8 302.81 1326.74 314.742 1296.42 314.795V314.945Z" fill="#061E30"/>
<path d="M1058.99 107.016L1121.55 18.6267L993.343 18.6267L930.783 107.016L1058.99 107.016Z" fill="#061E30"/>
<path d="M921.04 18.6267L829.681 18.6267L829.681 384.802H921.04V18.6267Z" fill="#061E30"/>
<path d="M780.374 245.99V201.771C780.374 161.885 768.42 122.894 746.023 89.7305C723.627 56.5665 691.793 30.7183 654.549 15.4546C617.305 0.190899 576.323 -3.80279 536.785 3.97858C497.247 11.76 460.929 30.9669 432.424 59.1705C403.918 87.3742 384.506 123.308 376.641 162.427C368.777 201.547 372.813 242.096 388.24 278.945C403.667 315.795 429.792 347.291 463.31 369.451C496.829 391.61 536.237 403.438 576.549 403.438C586.022 403.437 595.481 402.717 604.843 401.284C624.434 398.69 643.513 393.169 661.43 384.909C672.231 380.138 682.581 374.423 692.355 367.832L698.328 363.675V255.655L643.917 293.215C630.397 303.013 614.859 309.74 598.41 312.916C581.961 316.092 565.007 315.638 548.756 311.587C532.504 307.536 517.357 299.988 504.392 289.48C491.427 278.973 480.965 265.765 473.751 250.798L471.423 245.79L780.374 245.99ZM485.342 157.651H471.119L473.397 152.643C482.731 133.391 497.374 117.141 515.638 105.767C533.903 94.3927 555.044 88.3577 576.625 88.3577C598.206 88.3577 619.348 94.3927 637.612 105.767C655.876 117.141 670.52 133.391 679.853 152.643L682.131 157.401L485.342 157.651Z" fill="#061E30"/>
</svg>
